<svg xmlns="http://www.w3.org/2000/svg" width="620" height="805" viewBox="0 0 620 805" font-family="system-ui, -apple-system, 'PingFang SC', sans-serif">
<rect x="0" y="0" width="620" height="805" rx="8" fill="#f8fafc"/>
<text x="310" y="38" text-anchor="middle" font-size="25" font-weight="700" fill="#172033">五类职责，围绕同一次任务协作</text>
<path d="M230 160V192" fill="none" stroke="#475569" stroke-width="1.5"/>
<polygon points="230,200 225,191 235,191" fill="#475569"/>
<path d="M230 290V322" fill="none" stroke="#475569" stroke-width="1.5"/>
<polygon points="230,330 225,321 235,321" fill="#475569"/>
<path d="M230 420V452" fill="none" stroke="#475569" stroke-width="1.5"/>
<polygon points="230,460 225,451 235,451" fill="#475569"/>
<path d="M230 550V582" fill="none" stroke="#475569" stroke-width="1.5"/>
<polygon points="230,590 225,581 235,581" fill="#475569"/>
<rect x="35" y="70" width="390" height="90" rx="8" fill="#eff6ff" stroke="#5276bf" stroke-width="1.5"/>
<text x="230.0" y="108.0" text-anchor="middle" font-size="22" fill="#172033">接入</text>
<text x="230.0" y="138.0" text-anchor="middle" font-size="22" fill="#172033">身份、请求与任务标识</text>
<rect x="35" y="200" width="390" height="90" rx="8" fill="#eff6ff" stroke="#5276bf" stroke-width="1.5"/>
<text x="230.0" y="238.0" text-anchor="middle" font-size="22" fill="#172033">调度</text>
<text x="230.0" y="268.0" text-anchor="middle" font-size="22" fill="#172033">发布版本、队列与运行权</text>
<rect x="35" y="330" width="390" height="90" rx="8" fill="#f0fdf4" stroke="#548878" stroke-width="1.5"/>
<text x="230.0" y="368.0" text-anchor="middle" font-size="22" fill="#172033">运行时</text>
<text x="230.0" y="398.0" text-anchor="middle" font-size="22" fill="#172033">步骤、检查点与停止条件</text>
<rect x="35" y="460" width="390" height="90" rx="8" fill="#f5f3ff" stroke="#8060ba" stroke-width="1.5"/>
<text x="230.0" y="498.0" text-anchor="middle" font-size="22" fill="#172033">共享能力</text>
<text x="230.0" y="528.0" text-anchor="middle" font-size="22" fill="#172033">模型、工具、检索与记忆</text>
<rect x="35" y="590" width="390" height="90" rx="8" fill="#fff7ed" stroke="#a56b49" stroke-width="1.5"/>
<text x="230.0" y="628.0" text-anchor="middle" font-size="22" fill="#172033">基础设施</text>
<text x="230.0" y="658.0" text-anchor="middle" font-size="22" fill="#172033">数据、计算与密钥</text>
<rect x="455" y="70" width="135" height="610" rx="8" fill="#fff7ed" stroke="#a56b49" stroke-width="1.5"/>
<text x="522.5" y="293.0" text-anchor="middle" font-size="22" fill="#172033">贯穿各层</text>
<text x="522.5" y="323.0" text-anchor="middle" font-size="22" fill="#172033"></text>
<text x="522.5" y="353.0" text-anchor="middle" font-size="22" fill="#172033">资源授权</text>
<text x="522.5" y="383.0" text-anchor="middle" font-size="22" fill="#172033">版本记录</text>
<text x="522.5" y="413.0" text-anchor="middle" font-size="22" fill="#172033">预算管理</text>
<text x="522.5" y="443.0" text-anchor="middle" font-size="22" fill="#172033">观测审计</text>
<text x="522.5" y="473.0" text-anchor="middle" font-size="22" fill="#172033">故障恢复</text>
<text x="310" y="733" text-anchor="middle" font-size="20" fill="#475569">箭头表示主要调用方向，返回与旁路依赖省略</text>
<text x="310" y="772" text-anchor="middle" font-size="20" fill="#475569">这是职责划分，不要求部署为五个独立服务</text>
</svg>
