<svg xmlns="http://www.w3.org/2000/svg" width="620" height="570" viewBox="0 0 620 570" role="img" aria-label="同一视频，三种分片边界" font-family="system-ui, -apple-system, 'PingFang SC', sans-serif">
<rect width="620" height="570" rx="8" fill="#f8fafc"/>
<text x="310" y="40" text-anchor="middle" font-size="25" font-weight="700" fill="#0f172a">同一视频，三种分片边界</text>
<path d="M310 160 V188" fill="none" stroke="#475569" stroke-width="2"/>
<polygon points="305,188 310,198 315,188" fill="#475569"/>
<path d="M310 288 V316" fill="none" stroke="#475569" stroke-width="2"/>
<polygon points="305,316 310,326 315,316" fill="#475569"/>
<path d="M310 416 V444" fill="none" stroke="#475569" stroke-width="2"/>
<polygon points="305,444 310,454 315,444" fill="#475569"/>
<rect x="70" y="70" width="480" height="90" rx="8" fill="#eff6ff" stroke="#2563eb" stroke-width="1.5"/>
<text x="310.0" y="107.0" text-anchor="middle" font-size="22" fill="#1e293b">上传：按字节范围恢复</text>
<text x="310.0" y="137.0" text-anchor="middle" font-size="22" fill="#1e293b">完成校验 → 发布源文件</text>
<rect x="70" y="198" width="480" height="90" rx="8" fill="#f5f3ff" stroke="#7c3aed" stroke-width="1.5"/>
<text x="310.0" y="235.0" text-anchor="middle" font-size="22" fill="#1e293b">转码：按时间段 × 清晰度调度</text>
<text x="310.0" y="265.0" text-anchor="middle" font-size="22" fill="#1e293b">检查帧依赖、音画与接缝</text>
<rect x="70" y="326" width="480" height="90" rx="8" fill="#ecfdf5" stroke="#059669" stroke-width="1.5"/>
<text x="310.0" y="363.0" text-anchor="middle" font-size="22" fill="#1e293b">封装：媒体片段 + 播放列表</text>
<text x="310.0" y="393.0" text-anchor="middle" font-size="22" fill="#1e293b">HLS / m3u8 · DASH / MPD</text>
<rect x="70" y="454" width="480" height="76" rx="8" fill="#fff7ed" stroke="#c2410c" stroke-width="1.5"/>
<text x="310.0" y="499.0" text-anchor="middle" font-size="22" fill="#1e293b">分发与播放：缓存对象，选择档位</text>
</svg>
