<svg xmlns="http://www.w3.org/2000/svg" viewBox="0 0 500 350" font-family="system-ui, -apple-system, 'PingFang SC', sans-serif">
  <rect width="500" height="350" fill="#FAFAFA" rx="8"/>
  <rect x="70" y="15" width="360" height="50" rx="6" fill="#DBEAFE" stroke="#3B82F6" stroke-width="1.5"/>
  <text x="250" y="36" text-anchor="middle" font-size="12" font-weight="bold" fill="#1E40AF">Frontend</text>
  <text x="250" y="52" text-anchor="middle" font-size="10" fill="#6B7280">React + Zustand + MSE/WebRTC Player</text>
  <line x1="250" y1="65" x2="250" y2="80" stroke="#94A3B8" stroke-width="1.5"/>
  <polygon points="246,80 250,85 254,80" fill="#94A3B8"/>
  <rect x="70" y="85" width="360" height="50" rx="6" fill="#EDE9FE" stroke="#8B5CF6" stroke-width="1.5"/>
  <text x="250" y="106" text-anchor="middle" font-size="12" font-weight="bold" fill="#5B21B6">Interaction Service</text>
  <text x="250" y="122" text-anchor="middle" font-size="10" fill="#6B7280">WebSocket + Session Management</text>
  <line x1="250" y1="135" x2="250" y2="150" stroke="#94A3B8" stroke-width="1.5"/>
  <polygon points="246,150 250,155 254,150" fill="#94A3B8"/>
  <rect x="70" y="155" width="360" height="50" rx="6" fill="#D1FAE5" stroke="#10B981" stroke-width="1.5"/>
  <text x="250" y="176" text-anchor="middle" font-size="12" font-weight="bold" fill="#065F46">Story Engine</text>
  <text x="250" y="192" text-anchor="middle" font-size="10" fill="#6B7280">State Machine + LLM Agent + Video-RAG</text>
  <line x1="250" y1="205" x2="250" y2="220" stroke="#94A3B8" stroke-width="1.5"/>
  <polygon points="246,220 250,225 254,220" fill="#94A3B8"/>
  <line x1="250" y1="220" x2="130" y2="250" stroke="#94A3B8" stroke-width="1.5"/>
  <line x1="250" y1="220" x2="250" y2="250" stroke="#94A3B8" stroke-width="1.5"/>
  <line x1="250" y1="220" x2="370" y2="250" stroke="#94A3B8" stroke-width="1.5"/>
  <rect x="80" y="255" width="100" height="40" rx="6" fill="#FEF3C7" stroke="#F59E0B" stroke-width="1.5"/>
  <text x="130" y="280" text-anchor="middle" font-size="10" font-weight="bold" fill="#92400E">LLM API</text>
  <rect x="200" y="255" width="100" height="40" rx="6" fill="#EDE9FE" stroke="#8B5CF6" stroke-width="1.5"/>
  <text x="250" y="280" text-anchor="middle" font-size="10" font-weight="bold" fill="#5B21B6">TTS API</text>
  <rect x="320" y="255" width="100" height="40" rx="6" fill="#D1FAE5" stroke="#10B981" stroke-width="1.5"/>
  <text x="370" y="280" text-anchor="middle" font-size="10" font-weight="bold" fill="#065F46">Video Gen / Avatar</text>
  <text x="250" y="330" text-anchor="middle" font-size="10" fill="#6B7280">Go / Python / Node + Redis + PostgreSQL + MQ</text>
</svg>
