<svg xmlns="http://www.w3.org/2000/svg" viewBox="0 0 420 300" font-family="system-ui, -apple-system, 'PingFang SC', sans-serif">
  <rect width="420" height="300" fill="#FAFAFA" rx="8"/>
  <rect x="40" y="15" width="160" height="32" rx="6" fill="#DBEAFE" stroke="#3B82F6" stroke-width="1.5"/>
  <text x="120.0" y="35.0" text-anchor="middle" font-size="10" font-weight="bold" fill="#1E40AF">无声视频（视觉支线）</text>
  <rect x="220" y="15" width="160" height="32" rx="6" fill="#EDE9FE" stroke="#8B5CF6" stroke-width="1.5"/>
  <text x="300.0" y="35.0" text-anchor="middle" font-size="10" font-weight="bold" fill="#5B21B6">语音音频（音频支线）</text>
  <line x1="120" y1="47" x2="210" y2="75" stroke="#94A3B8" stroke-width="1.5"/>
  <line x1="300" y1="47" x2="210" y2="75" stroke="#94A3B8" stroke-width="1.5"/>
  <rect x="60" y="80" width="300" height="34" rx="6" fill="#DBEAFE" stroke="#3B82F6" stroke-width="1.5"/>
  <text x="210.0" y="101.0" text-anchor="middle" font-size="11" font-weight="bold" fill="#1E40AF">预处理：人脸检测 + 对齐</text>
  <line x1="210" y1="114" x2="210" y2="129" stroke="#94A3B8" stroke-width="1.5"/>
  <polygon points="206,129 210,134 214,129" fill="#94A3B8"/>
  <rect x="60" y="134" width="300" height="34" rx="6" fill="#EDE9FE" stroke="#8B5CF6" stroke-width="1.5"/>
  <text x="210.0" y="155.0" text-anchor="middle" font-size="11" font-weight="bold" fill="#5B21B6">Lip-sync 模型处理</text>
  <line x1="210" y1="168" x2="210" y2="183" stroke="#94A3B8" stroke-width="1.5"/>
  <polygon points="206,183 210,188 214,183" fill="#94A3B8"/>
  <rect x="60" y="188" width="300" height="34" rx="6" fill="#DBEAFE" stroke="#3B82F6" stroke-width="1.5"/>
  <text x="210.0" y="209.0" text-anchor="middle" font-size="11" font-weight="bold" fill="#1E40AF">后处理：边缘融合 + 色彩校正</text>
  <line x1="210" y1="222" x2="210" y2="237" stroke="#94A3B8" stroke-width="1.5"/>
  <polygon points="206,237 210,242 214,237" fill="#94A3B8"/>
  <rect x="60" y="242" width="300" height="34" rx="6" fill="#D1FAE5" stroke="#10B981" stroke-width="1.5"/>
  <text x="210.0" y="263.0" text-anchor="middle" font-size="11" font-weight="bold" fill="#065F46">输出：口型对齐的视频</text>
</svg>
