<svg xmlns="http://www.w3.org/2000/svg" viewBox="0 0 900 220" font-family="'PingFang SC','Microsoft YaHei','Segoe UI',sans-serif">
  <defs>
    <style>
      text { fill: #334155; font-size: 13px; }
      .header-text { fill: #1e293b; font-weight: bold; font-size: 13px; }
      .title { fill: #1e293b; font-weight: bold; font-size: 16px; }
      .small { font-size: 11px; }
      .accent { fill: #16a34a; }
      .highlight { fill: #16a34a; }
    </style>
  </defs>
  <rect width="900" height="220" rx="8" fill="#ffffff"/>
  <rect x="25.0" y="40" width="82" height="50" rx="6" fill="#16a34a"/>
  <text x="66.0" y="70.0" text-anchor="middle" fill="#fff" font-weight="bold" font-size="12">剧本构思</text>
  <rect x="25.0" y="130" width="82" height="40" rx="6" fill="#f0fdf4" stroke="#16a34a" stroke-width="1"/>
  <text x="66.0" y="155.0" text-anchor="middle" font-size="11" fill="#16a34a">LLM</text>
  <line x1="66.0" y1="90" x2="66.0" y2="130" stroke="#86efac" stroke-width="1.5" stroke-dasharray="4,3"/>
  <line x1="107.0" y1="65.0" x2="119.0" y2="65.0" stroke="#6b7280" stroke-width="1.5"/>
  <polygon points="119.0,62.0 124.0,65.0 119.0,68.0" fill="#6b7280"/>
  <rect x="121.0" y="40" width="82" height="50" rx="6" fill="#16a34a"/>
  <text x="162.0" y="70.0" text-anchor="middle" fill="#fff" font-weight="bold" font-size="12">分镜脚本</text>
  <rect x="121.0" y="130" width="82" height="40" rx="6" fill="#f0fdf4" stroke="#16a34a" stroke-width="1"/>
  <text x="162.0" y="155.0" text-anchor="middle" font-size="11" fill="#16a34a">LLM+人工</text>
  <line x1="162.0" y1="90" x2="162.0" y2="130" stroke="#86efac" stroke-width="1.5" stroke-dasharray="4,3"/>
  <line x1="203.0" y1="65.0" x2="215.0" y2="65.0" stroke="#6b7280" stroke-width="1.5"/>
  <polygon points="215.0,62.0 220.0,65.0 215.0,68.0" fill="#6b7280"/>
  <rect x="217.0" y="40" width="82" height="50" rx="6" fill="#16a34a"/>
  <text x="258.0" y="70.0" text-anchor="middle" fill="#fff" font-weight="bold" font-size="12">角色设计</text>
  <rect x="217.0" y="130" width="82" height="40" rx="6" fill="#f0fdf4" stroke="#16a34a" stroke-width="1"/>
  <text x="258.0" y="155.0" text-anchor="middle" font-size="11" fill="#16a34a">扩散模型</text>
  <line x1="258.0" y1="90" x2="258.0" y2="130" stroke="#86efac" stroke-width="1.5" stroke-dasharray="4,3"/>
  <line x1="299.0" y1="65.0" x2="311.0" y2="65.0" stroke="#6b7280" stroke-width="1.5"/>
  <polygon points="311.0,62.0 316.0,65.0 311.0,68.0" fill="#6b7280"/>
  <rect x="313.0" y="40" width="82" height="50" rx="6" fill="#16a34a"/>
  <text x="354.0" y="70.0" text-anchor="middle" fill="#fff" font-weight="bold" font-size="12">场景生成</text>
  <rect x="313.0" y="130" width="82" height="40" rx="6" fill="#f0fdf4" stroke="#16a34a" stroke-width="1"/>
  <text x="354.0" y="155.0" text-anchor="middle" font-size="11" fill="#16a34a">扩散模型</text>
  <line x1="354.0" y1="90" x2="354.0" y2="130" stroke="#86efac" stroke-width="1.5" stroke-dasharray="4,3"/>
  <line x1="395.0" y1="65.0" x2="407.0" y2="65.0" stroke="#6b7280" stroke-width="1.5"/>
  <polygon points="407.0,62.0 412.0,65.0 407.0,68.0" fill="#6b7280"/>
  <rect x="409.0" y="40" width="82" height="50" rx="6" fill="#16a34a"/>
  <text x="450.0" y="70.0" text-anchor="middle" fill="#fff" font-weight="bold" font-size="12">视频合成</text>
  <rect x="409.0" y="130" width="82" height="40" rx="6" fill="#f0fdf4" stroke="#16a34a" stroke-width="1"/>
  <text x="450.0" y="155.0" text-anchor="middle" font-size="11" fill="#16a34a">视频模型</text>
  <line x1="450.0" y1="90" x2="450.0" y2="130" stroke="#86efac" stroke-width="1.5" stroke-dasharray="4,3"/>
  <line x1="491.0" y1="65.0" x2="503.0" y2="65.0" stroke="#6b7280" stroke-width="1.5"/>
  <polygon points="503.0,62.0 508.0,65.0 503.0,68.0" fill="#6b7280"/>
  <rect x="505.0" y="40" width="82" height="50" rx="6" fill="#16a34a"/>
  <text x="546.0" y="70.0" text-anchor="middle" fill="#fff" font-weight="bold" font-size="12">素材修复</text>
  <rect x="505.0" y="130" width="82" height="40" rx="6" fill="#f0fdf4" stroke="#16a34a" stroke-width="1"/>
  <text x="546.0" y="155.0" text-anchor="middle" font-size="11" fill="#16a34a">超分/修复</text>
  <line x1="546.0" y1="90" x2="546.0" y2="130" stroke="#86efac" stroke-width="1.5" stroke-dasharray="4,3"/>
  <line x1="587.0" y1="65.0" x2="599.0" y2="65.0" stroke="#6b7280" stroke-width="1.5"/>
  <polygon points="599.0,62.0 604.0,65.0 599.0,68.0" fill="#6b7280"/>
  <rect x="601.0" y="40" width="82" height="50" rx="6" fill="#16a34a"/>
  <text x="642.0" y="70.0" text-anchor="middle" fill="#fff" font-weight="bold" font-size="12">配音配乐</text>
  <rect x="601.0" y="130" width="82" height="40" rx="6" fill="#f0fdf4" stroke="#16a34a" stroke-width="1"/>
  <text x="642.0" y="155.0" text-anchor="middle" font-size="11" fill="#16a34a">TTS/AI音乐</text>
  <line x1="642.0" y1="90" x2="642.0" y2="130" stroke="#86efac" stroke-width="1.5" stroke-dasharray="4,3"/>
  <line x1="683.0" y1="65.0" x2="695.0" y2="65.0" stroke="#6b7280" stroke-width="1.5"/>
  <polygon points="695.0,62.0 700.0,65.0 695.0,68.0" fill="#6b7280"/>
  <rect x="697.0" y="40" width="82" height="50" rx="6" fill="#16a34a"/>
  <text x="738.0" y="70.0" text-anchor="middle" fill="#fff" font-weight="bold" font-size="12">剪辑成片</text>
  <rect x="697.0" y="130" width="82" height="40" rx="6" fill="#f0fdf4" stroke="#16a34a" stroke-width="1"/>
  <text x="738.0" y="155.0" text-anchor="middle" font-size="11" fill="#16a34a">剪辑软件</text>
  <line x1="738.0" y1="90" x2="738.0" y2="130" stroke="#86efac" stroke-width="1.5" stroke-dasharray="4,3"/>
  <line x1="779.0" y1="65.0" x2="791.0" y2="65.0" stroke="#6b7280" stroke-width="1.5"/>
  <polygon points="791.0,62.0 796.0,65.0 791.0,68.0" fill="#6b7280"/>
  <rect x="793.0" y="40" width="82" height="50" rx="6" fill="#16a34a"/>
  <text x="834.0" y="70.0" text-anchor="middle" fill="#fff" font-weight="bold" font-size="12">发布分发</text>
  <rect x="793.0" y="130" width="82" height="40" rx="6" fill="#f0fdf4" stroke="#16a34a" stroke-width="1"/>
  <text x="834.0" y="155.0" text-anchor="middle" font-size="11" fill="#16a34a">平台适配</text>
  <line x1="834.0" y1="90" x2="834.0" y2="130" stroke="#86efac" stroke-width="1.5" stroke-dasharray="4,3"/>
  <text x="450.0" y="205" text-anchor="middle" font-size="11" fill="#6b7280">每个环节不是线性一次通过的，实际制作中会在各环节之间反复跳转</text>
</svg>
