<svg xmlns="http://www.w3.org/2000/svg" viewBox="0 0 960 220" font-family="system-ui, -apple-system, 'PingFang SC', sans-serif">
  <rect width="960" height="220" fill="#FAFAFA" rx="8"/>

  <!-- Stage labels -->
  <text x="480" y="22" text-anchor="middle" font-size="13" font-weight="bold" fill="#94A3B8">Pipeline Stages</text>

  <!-- Stage boxes row -->
  <rect x="20" y="38" width="80" height="36" rx="6" fill="#FEF3C7" stroke="#F59E0B" stroke-width="1.5"/>
  <text x="60" y="60" text-anchor="middle" font-size="11" font-weight="bold" fill="#92400E">Extract</text>

  <line x1="100" y1="56" x2="120" y2="56" stroke="#94A3B8" stroke-width="1.5"/>
  <polygon points="126,56 120,52 120,60" fill="#94A3B8"/>

  <rect x="128" y="38" width="64" height="36" rx="6" fill="#DBEAFE" stroke="#3B82F6" stroke-width="1.5"/>
  <text x="160" y="60" text-anchor="middle" font-size="11" font-weight="bold" fill="#1E40AF">ASR</text>

  <line x1="192" y1="56" x2="206" y2="56" stroke="#94A3B8" stroke-width="1.5"/>
  <polygon points="212,56 206,52 206,60" fill="#94A3B8"/>

  <rect x="214" y="38" width="66" height="36" rx="6" fill="#DBEAFE" stroke="#3B82F6" stroke-width="1.5"/>
  <text x="247" y="60" text-anchor="middle" font-size="11" font-weight="bold" fill="#1E40AF">Parse</text>

  <line x1="280" y1="56" x2="294" y2="56" stroke="#94A3B8" stroke-width="1.5"/>
  <polygon points="300,56 294,52 294,60" fill="#94A3B8"/>

  <rect x="302" y="38" width="70" height="36" rx="6" fill="#DBEAFE" stroke="#3B82F6" stroke-width="1.5"/>
  <text x="337" y="60" text-anchor="middle" font-size="11" font-weight="bold" fill="#1E40AF">Reseg</text>

  <line x1="372" y1="56" x2="386" y2="56" stroke="#94A3B8" stroke-width="1.5"/>
  <polygon points="392,56 386,52 386,60" fill="#94A3B8"/>

  <!-- Gate 1 -->
  <rect x="394" y="34" width="70" height="44" rx="6" fill="#FEE2E2" stroke="#EF4444" stroke-width="2"/>
  <text x="429" y="53" text-anchor="middle" font-size="9" font-weight="bold" fill="#991B1B">GATE</text>
  <text x="429" y="67" text-anchor="middle" font-size="8" fill="#DC2626">source_review</text>

  <line x1="464" y1="56" x2="478" y2="56" stroke="#94A3B8" stroke-width="1.5"/>
  <polygon points="484,56 478,52 478,60" fill="#94A3B8"/>

  <rect x="486" y="38" width="52" height="36" rx="6" fill="#D1FAE5" stroke="#10B981" stroke-width="1.5"/>
  <text x="512" y="60" text-anchor="middle" font-size="11" font-weight="bold" fill="#065F46">MT</text>

  <line x1="538" y1="56" x2="552" y2="56" stroke="#94A3B8" stroke-width="1.5"/>
  <polygon points="558,56 552,52 552,60" fill="#94A3B8"/>

  <rect x="560" y="38" width="60" height="36" rx="6" fill="#D1FAE5" stroke="#10B981" stroke-width="1.5"/>
  <text x="590" y="60" text-anchor="middle" font-size="11" font-weight="bold" fill="#065F46">Align</text>

  <line x1="620" y1="56" x2="634" y2="56" stroke="#94A3B8" stroke-width="1.5"/>
  <polygon points="640,56 634,52 634,60" fill="#94A3B8"/>

  <!-- Gate 2 -->
  <rect x="642" y="34" width="76" height="44" rx="6" fill="#FEE2E2" stroke="#EF4444" stroke-width="2"/>
  <text x="680" y="53" text-anchor="middle" font-size="9" font-weight="bold" fill="#991B1B">GATE</text>
  <text x="680" y="67" text-anchor="middle" font-size="8" fill="#DC2626">translation_review</text>

  <line x1="718" y1="56" x2="732" y2="56" stroke="#94A3B8" stroke-width="1.5"/>
  <polygon points="738,56 732,52 732,60" fill="#94A3B8"/>

  <rect x="740" y="38" width="52" height="36" rx="6" fill="#EDE9FE" stroke="#8B5CF6" stroke-width="1.5"/>
  <text x="766" y="60" text-anchor="middle" font-size="11" font-weight="bold" fill="#5B21B6">TTS</text>

  <line x1="792" y1="56" x2="806" y2="56" stroke="#94A3B8" stroke-width="1.5"/>
  <polygon points="812,56 806,52 806,60" fill="#94A3B8"/>

  <rect x="814" y="38" width="52" height="36" rx="6" fill="#EDE9FE" stroke="#8B5CF6" stroke-width="1.5"/>
  <text x="840" y="60" text-anchor="middle" font-size="11" font-weight="bold" fill="#5B21B6">Mix</text>

  <line x1="866" y1="56" x2="880" y2="56" stroke="#94A3B8" stroke-width="1.5"/>
  <polygon points="886,56 880,52 880,60" fill="#94A3B8"/>

  <rect x="888" y="38" width="52" height="36" rx="6" fill="#F1F5F9" stroke="#475569" stroke-width="1.5"/>
  <text x="914" y="60" text-anchor="middle" font-size="11" font-weight="bold" fill="#475569">Burn</text>

  <!-- Output labels -->
  <text x="60" y="98" text-anchor="middle" font-size="9" fill="#6B7280">音频 + 人声分离</text>
  <text x="160" y="98" text-anchor="middle" font-size="9" fill="#6B7280">ASR 原始响应</text>
  <text x="247" y="98" text-anchor="middle" font-size="9" fill="#6B7280">subtitle.model</text>
  <text x="337" y="98" text-anchor="middle" font-size="9" fill="#6B7280">LLM 断句</text>
  <text x="512" y="98" text-anchor="middle" font-size="9" fill="#6B7280">翻译结果</text>
  <text x="590" y="98" text-anchor="middle" font-size="9" fill="#6B7280">dub.model</text>
  <text x="766" y="98" text-anchor="middle" font-size="9" fill="#6B7280">逐句 WAV</text>
  <text x="840" y="98" text-anchor="middle" font-size="9" fill="#6B7280">混音 WAV</text>
  <text x="914" y="98" text-anchor="middle" font-size="9" fill="#6B7280">成片 MP4</text>

  <!-- SSOT bar -->
  <rect x="20" y="120" width="920" height="44" rx="8" fill="#F0FDF4" stroke="#22C55E" stroke-width="1.5" stroke-dasharray="6,3"/>
  <text x="480" y="138" text-anchor="middle" font-size="11" font-weight="bold" fill="#166534">三个 SSOT 贯穿全链路</text>
  <text x="200" y="155" text-anchor="middle" font-size="10" fill="#166534">asr-result.json</text>
  <text x="480" y="155" text-anchor="middle" font-size="10" fill="#166534">subtitle.model.json</text>
  <text x="760" y="155" text-anchor="middle" font-size="10" fill="#166534">dub.model.json</text>

  <!-- Legend -->
  <rect x="20" y="180" width="16" height="12" rx="3" fill="#DBEAFE" stroke="#3B82F6" stroke-width="1"/>
  <text x="42" y="190" font-size="10" fill="#6B7280">识别阶段</text>
  <rect x="110" y="180" width="16" height="12" rx="3" fill="#D1FAE5" stroke="#10B981" stroke-width="1"/>
  <text x="132" y="190" font-size="10" fill="#6B7280">翻译阶段</text>
  <rect x="200" y="180" width="16" height="12" rx="3" fill="#EDE9FE" stroke="#8B5CF6" stroke-width="1"/>
  <text x="222" y="190" font-size="10" fill="#6B7280">配音阶段</text>
  <rect x="290" y="180" width="16" height="12" rx="3" fill="#FEE2E2" stroke="#EF4444" stroke-width="1"/>
  <text x="312" y="190" font-size="10" fill="#6B7280">人工质量关卡</text>
</svg>
