<svg xmlns="http://www.w3.org/2000/svg" viewBox="0 0 600 395" font-family="system-ui, -apple-system, 'PingFang SC', sans-serif">
  <rect width="600" height="395" fill="#FAFAFA" rx="8"/>
  <rect x="200" y="10" width="200" height="34" rx="6" fill="#FEF3C7" stroke="#F59E0B" stroke-width="1.5"/>
  <text x="300.0" y="31.0" text-anchor="middle" font-size="11" font-weight="bold" fill="#92400E">结构化剧本 JSON</text>
  <line x1="300" y1="44" x2="300" y2="55" stroke="#94A3B8" stroke-width="1.5"/>
  <polygon points="296,55 300,60 304,55" fill="#94A3B8"/>
  <rect x="200" y="60" width="200" height="34" rx="6" fill="#3B82F6"/>
  <text x="300.0" y="81.0" text-anchor="middle" font-size="11" font-weight="bold" fill="#fff">任务分发器 Dispatcher</text>
  <line x1="300" y1="94" x2="300" y2="110" stroke="#94A3B8" stroke-width="1.5"/>
  <polygon points="296,110 300,115 304,110" fill="#94A3B8"/>
  <rect x="80" y="115" width="440" height="100" rx="6" fill="#DBEAFE" stroke="#3B82F6" stroke-width="1"/>
  <text x="100" y="143" fill="#1E40AF" font-size="11">镜头1: 视觉 + 音频</text>
  <text x="360" y="143" fill="#3B82F6" font-weight="bold" font-size="11">→ GPU 队列</text>
  <text x="100" y="171" fill="#1E40AF" font-size="11">镜头2: 视觉 + 音频</text>
  <text x="360" y="171" fill="#3B82F6" font-weight="bold" font-size="11">→ GPU 队列</text>
  <text x="100" y="199" fill="#1E40AF" font-size="11">镜头3: 纯对白</text>
  <text x="360" y="199" fill="#8B5CF6" font-weight="bold" font-size="11">→ CPU 队列（只需 TTS）</text>
  <line x1="300" y1="215" x2="300" y2="230" stroke="#94A3B8" stroke-width="1.5"/>
  <polygon points="296,230 300,235 304,230" fill="#94A3B8"/>
  <rect x="120" y="235" width="360" height="30" rx="6" fill="#EDE9FE" stroke="#8B5CF6" stroke-width="1.5"/>
  <text x="300.0" y="254.0" text-anchor="middle" font-size="10" font-weight="bold" fill="#5B21B6">Lip-sync 对齐（依赖视觉 + 音频都完成）</text>
  <line x1="300" y1="265" x2="300" y2="268" stroke="#94A3B8" stroke-width="1.5"/>
  <polygon points="296,268 300,273 304,268" fill="#94A3B8"/>
  <rect x="120" y="273" width="360" height="30" rx="6" fill="#DBEAFE" stroke="#3B82F6" stroke-width="1.5"/>
  <text x="300.0" y="292.0" text-anchor="middle" font-size="10" font-weight="bold" fill="#1E40AF">后处理（去闪烁、超分、色彩校正）</text>
  <line x1="300" y1="303" x2="300" y2="306" stroke="#94A3B8" stroke-width="1.5"/>
  <polygon points="296,306 300,311 304,306" fill="#94A3B8"/>
  <rect x="120" y="311" width="360" height="30" rx="6" fill="#DBEAFE" stroke="#3B82F6" stroke-width="1.5"/>
  <text x="300.0" y="330.0" text-anchor="middle" font-size="10" font-weight="bold" fill="#1E40AF">拼接 + 加 BGM / 音效</text>
  <line x1="300" y1="341" x2="300" y2="344" stroke="#94A3B8" stroke-width="1.5"/>
  <polygon points="296,344 300,349 304,344" fill="#94A3B8"/>
  <rect x="120" y="349" width="360" height="30" rx="6" fill="#D1FAE5" stroke="#10B981" stroke-width="1.5"/>
  <text x="300.0" y="368.0" text-anchor="middle" font-size="10" font-weight="bold" fill="#065F46">成片输出</text>
</svg>
