<svg viewBox="0 0 820 420" xmlns="http://www.w3.org/2000/svg" font-family="system-ui, -apple-system, 'PingFang SC', sans-serif">
  <rect width="820" height="420" fill="#F8FAFC" rx="8"/>
  <text x="410" y="28" text-anchor="middle" font-size="14" font-weight="600" fill="#1E293B">CDN 供应商选型矩阵</text>

  <!-- Column headers -->
  <rect x="10" y="42" width="155" height="36" rx="4" fill="#E2E8F0"/>
  <text x="87" y="65" text-anchor="middle" font-size="11" font-weight="600" fill="#475569">供应商</text>

  <rect x="175" y="42" width="95" height="36" rx="4" fill="#DBEAFE"/>
  <text x="222" y="58" text-anchor="middle" font-size="10" font-weight="600" fill="#1E40AF">国内静态</text>
  <text x="222" y="72" text-anchor="middle" font-size="10" fill="#1E40AF">资源</text>

  <rect x="278" y="42" width="95" height="36" rx="4" fill="#DBEAFE"/>
  <text x="325" y="58" text-anchor="middle" font-size="10" font-weight="600" fill="#1E40AF">国内视频</text>
  <text x="325" y="72" text-anchor="middle" font-size="10" fill="#1E40AF">点播</text>

  <rect x="381" y="42" width="95" height="36" rx="4" fill="#D1FAE5"/>
  <text x="428" y="58" text-anchor="middle" font-size="10" font-weight="600" fill="#065F46">全球静态</text>
  <text x="428" y="72" text-anchor="middle" font-size="10" fill="#065F46">资源</text>

  <rect x="484" y="42" width="95" height="36" rx="4" fill="#D1FAE5"/>
  <text x="531" y="58" text-anchor="middle" font-size="10" font-weight="600" fill="#065F46">全球动态</text>
  <text x="531" y="72" text-anchor="middle" font-size="10" fill="#065F46">加速</text>

  <rect x="587" y="42" width="95" height="36" rx="4" fill="#FEF3C7"/>
  <text x="634" y="58" text-anchor="middle" font-size="10" font-weight="600" fill="#92400E">DDoS /</text>
  <text x="634" y="72" text-anchor="middle" font-size="10" fill="#92400E">安全防护</text>

  <rect x="690" y="42" width="120" height="36" rx="4" fill="#EDE9FE"/>
  <text x="750" y="58" text-anchor="middle" font-size="10" font-weight="600" fill="#4C1D95">价格水位</text>
  <text x="750" y="72" text-anchor="middle" font-size="10" fill="#4C1D95">（流量费）</text>

  <!-- Rating helper: ★=好 ◐=一般 ✗=弱 -->

  <!-- Row: 阿里云 CDN -->
  <rect x="10" y="88" width="155" height="46" rx="4" fill="#FFF7ED" stroke="#FB923C" stroke-width="1.5"/>
  <text x="87" y="108" text-anchor="middle" font-size="11" font-weight="600" fill="#7C2D12">阿里云 CDN</text>
  <text x="87" y="124" text-anchor="middle" font-size="9" fill="#9A3412">国内首选，生态完整</text>

  <rect x="175" y="88" width="95" height="46" rx="4" fill="#DCFCE7" stroke="#86EFAC" stroke-width="1"/>
  <text x="222" y="117" text-anchor="middle" font-size="13" fill="#15803D">★★★</text>

  <rect x="278" y="88" width="95" height="46" rx="4" fill="#DCFCE7" stroke="#86EFAC" stroke-width="1"/>
  <text x="325" y="117" text-anchor="middle" font-size="13" fill="#15803D">★★★</text>

  <rect x="381" y="88" width="95" height="46" rx="4" fill="#FEF9C3" stroke="#FCD34D" stroke-width="1"/>
  <text x="428" y="117" text-anchor="middle" font-size="13" fill="#854D0E">★★</text>

  <rect x="484" y="88" width="95" height="46" rx="4" fill="#FEF9C3" stroke="#FCD34D" stroke-width="1"/>
  <text x="531" y="117" text-anchor="middle" font-size="13" fill="#854D0E">★★</text>

  <rect x="587" y="88" width="95" height="46" rx="4" fill="#DCFCE7" stroke="#86EFAC" stroke-width="1"/>
  <text x="634" y="117" text-anchor="middle" font-size="13" fill="#15803D">★★★</text>

  <rect x="690" y="88" width="120" height="46" rx="4" fill="#F1F5F9" stroke="#CBD5E1" stroke-width="1"/>
  <text x="750" y="108" text-anchor="middle" font-size="11" fill="#334155">¥0.17/GB</text>
  <text x="750" y="124" text-anchor="middle" font-size="9" fill="#64748B">大客户可谈</text>

  <!-- Row: 腾讯云 CDN -->
  <rect x="10" y="144" width="155" height="46" rx="4" fill="#EFF6FF" stroke="#93C5FD" stroke-width="1.5"/>
  <text x="87" y="164" text-anchor="middle" font-size="11" font-weight="600" fill="#1E3A8A">腾讯云 CDN</text>
  <text x="87" y="180" text-anchor="middle" font-size="9" fill="#1E40AF">游戏/社交场景强</text>

  <rect x="175" y="144" width="95" height="46" rx="4" fill="#DCFCE7" stroke="#86EFAC" stroke-width="1"/>
  <text x="222" y="173" text-anchor="middle" font-size="13" fill="#15803D">★★★</text>

  <rect x="278" y="144" width="95" height="46" rx="4" fill="#DCFCE7" stroke="#86EFAC" stroke-width="1"/>
  <text x="325" y="173" text-anchor="middle" font-size="13" fill="#15803D">★★★</text>

  <rect x="381" y="144" width="95" height="46" rx="4" fill="#FEF9C3" stroke="#FCD34D" stroke-width="1"/>
  <text x="428" y="173" text-anchor="middle" font-size="13" fill="#854D0E">★★</text>

  <rect x="484" y="144" width="95" height="46" rx="4" fill="#FEF9C3" stroke="#FCD34D" stroke-width="1"/>
  <text x="531" y="173" text-anchor="middle" font-size="13" fill="#854D0E">★★</text>

  <rect x="587" y="144" width="95" height="46" rx="4" fill="#DCFCE7" stroke="#86EFAC" stroke-width="1"/>
  <text x="634" y="173" text-anchor="middle" font-size="13" fill="#15803D">★★★</text>

  <rect x="690" y="144" width="120" height="46" rx="4" fill="#F1F5F9" stroke="#CBD5E1" stroke-width="1"/>
  <text x="750" y="164" text-anchor="middle" font-size="11" fill="#334155">¥0.15/GB</text>
  <text x="750" y="180" text-anchor="middle" font-size="9" fill="#64748B">略低于阿里</text>

  <!-- Row: Cloudflare -->
  <rect x="10" y="200" width="155" height="46" rx="4" fill="#FFF1F2" stroke="#FDA4AF" stroke-width="1.5"/>
  <text x="87" y="220" text-anchor="middle" font-size="11" font-weight="600" fill="#881337">Cloudflare</text>
  <text x="87" y="236" text-anchor="middle" font-size="9" fill="#9F1239">全球最强，免费层厚</text>

  <rect x="175" y="200" width="95" height="46" rx="4" fill="#FEE2E2" stroke="#FCA5A5" stroke-width="1"/>
  <text x="222" y="220" text-anchor="middle" font-size="11" fill="#991B1B">国内受限</text>
  <text x="222" y="236" text-anchor="middle" font-size="9" fill="#991B1B">无 ICP</text>

  <rect x="278" y="200" width="95" height="46" rx="4" fill="#FEE2E2" stroke="#FCA5A5" stroke-width="1"/>
  <text x="325" y="229" text-anchor="middle" font-size="11" fill="#991B1B">✗</text>

  <rect x="381" y="200" width="95" height="46" rx="4" fill="#DCFCE7" stroke="#86EFAC" stroke-width="1"/>
  <text x="428" y="229" text-anchor="middle" font-size="13" fill="#15803D">★★★</text>

  <rect x="484" y="200" width="95" height="46" rx="4" fill="#DCFCE7" stroke="#86EFAC" stroke-width="1"/>
  <text x="531" y="229" text-anchor="middle" font-size="13" fill="#15803D">★★★</text>

  <rect x="587" y="200" width="95" height="46" rx="4" fill="#DCFCE7" stroke="#86EFAC" stroke-width="1"/>
  <text x="634" y="220" text-anchor="middle" font-size="13" fill="#15803D">★★★</text>
  <text x="634" y="236" text-anchor="middle" font-size="9" fill="#065F46">行业顶级</text>

  <rect x="690" y="200" width="120" height="46" rx="4" fill="#DCFCE7" stroke="#86EFAC" stroke-width="1"/>
  <text x="750" y="218" text-anchor="middle" font-size="11" fill="#15803D">免费层可用</text>
  <text x="750" y="234" text-anchor="middle" font-size="9" fill="#15803D">Pro $20/月起</text>

  <!-- Row: AWS CloudFront -->
  <rect x="10" y="256" width="155" height="46" rx="4" fill="#FEF3C7" stroke="#FCD34D" stroke-width="1.5"/>
  <text x="87" y="276" text-anchor="middle" font-size="11" font-weight="600" fill="#713F12">AWS CloudFront</text>
  <text x="87" y="292" text-anchor="middle" font-size="9" fill="#92400E">AWS 生态用户首选</text>

  <rect x="175" y="256" width="95" height="46" rx="4" fill="#FEE2E2" stroke="#FCA5A5" stroke-width="1"/>
  <text x="222" y="276" text-anchor="middle" font-size="11" fill="#991B1B">国内受限</text>
  <text x="222" y="292" text-anchor="middle" font-size="9" fill="#991B1B">同上</text>

  <rect x="278" y="256" width="95" height="46" rx="4" fill="#FEE2E2" stroke="#FCA5A5" stroke-width="1"/>
  <text x="325" y="285" text-anchor="middle" font-size="11" fill="#991B1B">✗</text>

  <rect x="381" y="256" width="95" height="46" rx="4" fill="#DCFCE7" stroke="#86EFAC" stroke-width="1"/>
  <text x="428" y="285" text-anchor="middle" font-size="13" fill="#15803D">★★★</text>

  <rect x="484" y="256" width="95" height="46" rx="4" fill="#DCFCE7" stroke="#86EFAC" stroke-width="1"/>
  <text x="531" y="285" text-anchor="middle" font-size="13" fill="#15803D">★★★</text>

  <rect x="587" y="256" width="95" height="46" rx="4" fill="#FEF9C3" stroke="#FCD34D" stroke-width="1"/>
  <text x="634" y="285" text-anchor="middle" font-size="13" fill="#854D0E">★★</text>

  <rect x="690" y="256" width="120" height="46" rx="4" fill="#F1F5F9" stroke="#CBD5E1" stroke-width="1"/>
  <text x="750" y="276" text-anchor="middle" font-size="11" fill="#334155">$0.085/GB</text>
  <text x="750" y="292" text-anchor="middle" font-size="9" fill="#64748B">海外偏贵</text>

  <!-- Row: 多 CDN 策略 -->
  <rect x="10" y="312" width="155" height="80" rx="4" fill="#F0F9FF" stroke="#38BDF8" stroke-width="2"/>
  <text x="87" y="335" text-anchor="middle" font-size="11" font-weight="600" fill="#0C4A6E">多 CDN 策略</text>
  <text x="87" y="351" text-anchor="middle" font-size="9" fill="#075985">国内 + 海外分离</text>
  <text x="87" y="367" text-anchor="middle" font-size="9" fill="#075985">eg. 阿里云 + Cloudflare</text>
  <text x="87" y="383" text-anchor="middle" font-size="9" fill="#075985">适合全球化产品</text>

  <rect x="175" y="312" width="535" height="80" rx="4" fill="#E0F2FE" stroke="#38BDF8" stroke-width="1"/>
  <text x="442" y="340" text-anchor="middle" font-size="11" font-weight="600" fill="#0C4A6E">推荐方案：国内域名 → 阿里云/腾讯云 CDN（需 ICP 备案）</text>
  <text x="442" y="358" text-anchor="middle" font-size="11" fill="#075985">海外域名 → Cloudflare 或 CloudFront（按云基础设施选）</text>
  <text x="442" y="376" text-anchor="middle" font-size="11" fill="#075985">DNS 层通过 GeoDNS 路由，对用户透明；统一监控两套 CDN 的命中率和延迟</text>
  <text x="442" y="394" text-anchor="middle" font-size="9" fill="#0369A1">注：中国大陆 CDN 必须有 ICP 备案，Cloudflare 等海外 CDN 无法在大陆落地节点</text>
</svg>
