<svg xmlns="http://www.w3.org/2000/svg" viewBox="0 0 707 82" font-family="system-ui, -apple-system, 'PingFang SC', sans-serif">
  <rect width="707" height="82" fill="#FAFAFA" rx="8"/>
  <rect x="20" y="20" width="85" height="36" rx="6" fill="#FEF3C7" stroke="#F59E0B" stroke-width="1.5"/>
  <text x="62.5" y="42.0" text-anchor="middle" font-size="10" font-weight="bold" fill="#92400E">创建</text>
  <line x1="105" y1="38" x2="111" y2="38" stroke="#94A3B8" stroke-width="1.5"/>
  <polygon points="117,38 111,34 111,42" fill="#94A3B8"/>
  <rect x="117" y="20" width="85" height="36" rx="6" fill="#DBEAFE" stroke="#3B82F6" stroke-width="1.5"/>
  <text x="159.5" y="42.0" text-anchor="middle" font-size="10" font-weight="bold" fill="#1E40AF">训练 LoRA</text>
  <line x1="202" y1="38" x2="208" y2="38" stroke="#94A3B8" stroke-width="1.5"/>
  <polygon points="214,38 208,34 208,42" fill="#94A3B8"/>
  <rect x="214" y="20" width="85" height="36" rx="6" fill="#DBEAFE" stroke="#3B82F6" stroke-width="1.5"/>
  <text x="256.5" y="42.0" text-anchor="middle" font-size="10" font-weight="bold" fill="#1E40AF">声纹采集</text>
  <line x1="299" y1="38" x2="305" y2="38" stroke="#94A3B8" stroke-width="1.5"/>
  <polygon points="311,38 305,34 305,42" fill="#94A3B8"/>
  <rect x="311" y="20" width="85" height="36" rx="6" fill="#FEE2E2" stroke="#EF4444" stroke-width="1.5"/>
  <text x="353.5" y="42.0" text-anchor="middle" font-size="10" font-weight="bold" fill="#991B1B">质量测试</text>
  <line x1="396" y1="38" x2="402" y2="38" stroke="#94A3B8" stroke-width="1.5"/>
  <polygon points="408,38 402,34 402,42" fill="#94A3B8"/>
  <rect x="408" y="20" width="85" height="36" rx="6" fill="#D1FAE5" stroke="#10B981" stroke-width="1.5"/>
  <text x="450.5" y="42.0" text-anchor="middle" font-size="10" font-weight="bold" fill="#065F46">上线使用</text>
  <line x1="493" y1="38" x2="499" y2="38" stroke="#94A3B8" stroke-width="1.5"/>
  <polygon points="505,38 499,34 499,42" fill="#94A3B8"/>
  <rect x="505" y="20" width="85" height="36" rx="6" fill="#EDE9FE" stroke="#8B5CF6" stroke-width="1.5"/>
  <text x="547.5" y="42.0" text-anchor="middle" font-size="10" font-weight="bold" fill="#5B21B6">监控漂移</text>
  <line x1="590" y1="38" x2="596" y2="38" stroke="#94A3B8" stroke-width="1.5"/>
  <polygon points="602,38 596,34 596,42" fill="#94A3B8"/>
  <rect x="602" y="20" width="85" height="36" rx="6" fill="#DBEAFE" stroke="#3B82F6" stroke-width="1.5"/>
  <text x="644.5" y="42.0" text-anchor="middle" font-size="10" font-weight="bold" fill="#1E40AF">迭代训练</text>
  <path d="M 644.5 56 L 644.5 68 L 62.5 68 L 62.5 56" fill="none" stroke="#94A3B8" stroke-width="1" stroke-dasharray="4,3"/>
  <polygon points="59.5,56 62.5,52 65.5,56" fill="#94A3B8"/>
</svg>
