<svg xmlns="http://www.w3.org/2000/svg" viewBox="0 0 629 70" font-family="system-ui, -apple-system, 'PingFang SC', sans-serif">
  <rect width="629" height="70" fill="#FAFAFA" rx="8"/>
  <rect x="20" y="15" width="130" height="40" rx="6" fill="#FEF3C7" stroke="#F59E0B" stroke-width="1.5"/>
  <text x="85.0" y="31" text-anchor="middle" fill="#92400E" font-weight="bold" font-size="12">图文</text>
  <text x="85.0" y="47" text-anchor="middle" fill="#6B7280" font-size="10">单向阅读</text>
  <line x1="150" y1="35" x2="167" y2="35" stroke="#94A3B8" stroke-width="1.5"/>
  <polygon points="173,35 167,31 167,39" fill="#94A3B8"/>
  <rect x="173" y="15" width="130" height="40" rx="6" fill="#DBEAFE" stroke="#3B82F6" stroke-width="1.5"/>
  <text x="238.0" y="31" text-anchor="middle" fill="#1E40AF" font-weight="bold" font-size="12">视频</text>
  <text x="238.0" y="47" text-anchor="middle" fill="#6B7280" font-size="10">被动观看</text>
  <line x1="303" y1="35" x2="320" y2="35" stroke="#94A3B8" stroke-width="1.5"/>
  <polygon points="326,35 320,31 320,39" fill="#94A3B8"/>
  <rect x="326" y="15" width="130" height="40" rx="6" fill="#DBEAFE" stroke="#3B82F6" stroke-width="1.5"/>
  <text x="391.0" y="31" text-anchor="middle" fill="#1E40AF" font-weight="bold" font-size="12">直播</text>
  <text x="391.0" y="47" text-anchor="middle" fill="#6B7280" font-size="10">实时但单向</text>
  <line x1="456" y1="35" x2="473" y2="35" stroke="#94A3B8" stroke-width="1.5"/>
  <polygon points="479,35 473,31 473,39" fill="#94A3B8"/>
  <rect x="479" y="15" width="130" height="40" rx="6" fill="#EDE9FE" stroke="#8B5CF6" stroke-width="1.5"/>
  <text x="544.0" y="31" text-anchor="middle" fill="#5B21B6" font-weight="bold" font-size="12">可互动视频</text>
  <text x="544.0" y="47" text-anchor="middle" fill="#6B7280" font-size="10">双向生成</text>
</svg>
