<svg xmlns="http://www.w3.org/2000/svg" viewBox="0 0 800 80" font-family="system-ui, -apple-system, 'PingFang SC', sans-serif">
  <rect width="800" height="80" fill="#FAFAFA" rx="8"/>
  <text x="400" y="18" text-anchor="middle" font-size="11" font-weight="bold" fill="#94A3B8">Gender 数据流</text>

  <rect x="10" y="32" width="120" height="32" rx="6" fill="#DBEAFE" stroke="#3B82F6" stroke-width="1.5"/>
  <text x="70" y="52" text-anchor="middle" font-size="10" fill="#1E40AF">asr-result.json</text>

  <line x1="130" y1="48" x2="148" y2="48" stroke="#94A3B8" stroke-width="1.5"/>
  <polygon points="154,48 148,44 148,52" fill="#94A3B8"/>

  <rect x="156" y="32" width="120" height="32" rx="6" fill="#DBEAFE" stroke="#3B82F6" stroke-width="1.5"/>
  <text x="216" y="46" text-anchor="middle" font-size="9" fill="#1E40AF">extract_all_words</text>
  <text x="216" y="58" text-anchor="middle" font-size="8" fill="#3B82F6">speaker_gender_map</text>

  <line x1="276" y1="48" x2="294" y2="48" stroke="#94A3B8" stroke-width="1.5"/>
  <polygon points="300,48 294,44 294,52" fill="#94A3B8"/>

  <rect x="302" y="32" width="130" height="32" rx="6" fill="#D1FAE5" stroke="#10B981" stroke-width="1.5"/>
  <text x="367" y="46" text-anchor="middle" font-size="9" fill="#065F46">normalize_utterances</text>
  <text x="367" y="58" text-anchor="middle" font-size="8" fill="#10B981">.gender</text>

  <line x1="432" y1="48" x2="450" y2="48" stroke="#94A3B8" stroke-width="1.5"/>
  <polygon points="456,48 450,44 450,52" fill="#94A3B8"/>

  <rect x="458" y="32" width="130" height="32" rx="6" fill="#D1FAE5" stroke="#10B981" stroke-width="1.5"/>
  <text x="523" y="46" text-anchor="middle" font-size="9" fill="#065F46">subtitle.model.json</text>
  <text x="523" y="58" text-anchor="middle" font-size="8" fill="#10B981">SpeakerInfo.gender</text>

  <line x1="588" y1="48" x2="606" y2="48" stroke="#94A3B8" stroke-width="1.5"/>
  <polygon points="612,48 606,44 606,52" fill="#94A3B8"/>

  <rect x="614" y="32" width="80" height="32" rx="6" fill="#EDE9FE" stroke="#8B5CF6" stroke-width="1.5"/>
  <text x="654" y="52" text-anchor="middle" font-size="9" fill="#5B21B6">dub.model</text>

  <line x1="694" y1="48" x2="712" y2="48" stroke="#94A3B8" stroke-width="1.5"/>
  <polygon points="718,48 712,44 712,52" fill="#94A3B8"/>

  <rect x="720" y="32" width="70" height="32" rx="6" fill="#FEF3C7" stroke="#F59E0B" stroke-width="1.5"/>
  <text x="755" y="46" text-anchor="middle" font-size="9" fill="#92400E">TTS</text>
  <text x="755" y="58" text-anchor="middle" font-size="8" fill="#F59E0B">性别兜底</text>
</svg>
