<svg xmlns="http://www.w3.org/2000/svg" viewBox="0 0 830 200" font-family="system-ui, -apple-system, 'PingFang SC', sans-serif">
  <rect width="830" height="200" fill="#FAFAFA" rx="8"/>
  <rect x="20" y="80" width="120" height="50" rx="6" fill="#F59E0B"/>
  <text x="80.0" y="109.0" text-anchor="middle" font-size="11" font-weight="bold" fill="#fff">剧本 + 角色设定</text>
  <line x1="140" y1="105" x2="174" y2="105" stroke="#94A3B8" stroke-width="1.5"/>
  <polygon points="180,105 174,101 174,109" fill="#94A3B8"/>
  <rect x="185" y="20" width="370" height="70" rx="8" fill="#DBEAFE" stroke="#3B82F6" stroke-width="1"/>
  <text x="195" y="40" fill="#1E40AF" font-weight="bold" font-size="11">视觉支线</text>
  <rect x="200" y="48" width="60" height="28" rx="4" fill="#fff" stroke="#93C5FD" stroke-width="1"/>
  <text x="230" y="66" text-anchor="middle" fill="#1E40AF" font-size="9">LoRA</text>
  <text x="264" y="66" fill="#94A3B8" font-size="10">→</text>
  <rect x="268" y="48" width="60" height="28" rx="4" fill="#fff" stroke="#93C5FD" stroke-width="1"/>
  <text x="298" y="66" text-anchor="middle" fill="#1E40AF" font-size="9">IP-Adapter</text>
  <text x="332" y="66" fill="#94A3B8" font-size="10">→</text>
  <rect x="336" y="48" width="60" height="28" rx="4" fill="#fff" stroke="#93C5FD" stroke-width="1"/>
  <text x="366" y="66" text-anchor="middle" fill="#1E40AF" font-size="9">ControlNet</text>
  <text x="400" y="66" fill="#94A3B8" font-size="10">→</text>
  <rect x="404" y="48" width="60" height="28" rx="4" fill="#fff" stroke="#93C5FD" stroke-width="1"/>
  <text x="434" y="66" text-anchor="middle" fill="#1E40AF" font-size="9">视频模型</text>
  <text x="468" y="66" fill="#94A3B8" font-size="10">→</text>
  <rect x="472" y="48" width="60" height="28" rx="4" fill="#fff" stroke="#93C5FD" stroke-width="1"/>
  <text x="502" y="66" text-anchor="middle" fill="#1E40AF" font-size="9">Face Swap</text>
  <rect x="185" y="105" width="370" height="70" rx="8" fill="#EDE9FE" stroke="#8B5CF6" stroke-width="1"/>
  <text x="195" y="125" fill="#5B21B6" font-weight="bold" font-size="11">音频支线</text>
  <rect x="200" y="133" width="105" height="28" rx="4" fill="#fff" stroke="#C4B5FD" stroke-width="1"/>
  <text x="252" y="151" text-anchor="middle" fill="#5B21B6" font-size="9">声纹克隆</text>
  <text x="310" y="151" fill="#94A3B8" font-size="10">→</text>
  <rect x="320" y="133" width="105" height="28" rx="4" fill="#fff" stroke="#C4B5FD" stroke-width="1"/>
  <text x="372" y="151" text-anchor="middle" fill="#5B21B6" font-size="9">TTS</text>
  <text x="430" y="151" fill="#94A3B8" font-size="10">→</text>
  <rect x="440" y="133" width="105" height="28" rx="4" fill="#fff" stroke="#C4B5FD" stroke-width="1"/>
  <text x="492" y="151" text-anchor="middle" fill="#5B21B6" font-size="9">带情感的音频</text>
  <line x1="555" y1="55" x2="585" y2="55" stroke="#94A3B8" stroke-width="1.5"/>
  <polygon points="585,52 590,55 585,58" fill="#94A3B8"/>
  <line x1="555" y1="140" x2="585" y2="140" stroke="#94A3B8" stroke-width="1.5"/>
  <polygon points="585,137 590,140 585,143" fill="#94A3B8"/>
  <rect x="595" y="70" width="80" height="50" rx="6" fill="#10B981"/>
  <text x="635.0" y="93.0" text-anchor="middle" font-size="11" font-weight="bold" fill="#fff">对齐层</text>
  <text x="635.0" y="107.0" text-anchor="middle" font-size="10" fill="#A7F3D0">Lip-sync</text>
  <line x1="675" y1="95" x2="704" y2="95" stroke="#94A3B8" stroke-width="1.5"/>
  <polygon points="710,95 704,91 704,99" fill="#94A3B8"/>
  <rect x="715" y="70" width="50" height="50" rx="6" fill="#FEE2E2" stroke="#EF4444" stroke-width="1.5"/>
  <text x="740.0" y="99.0" text-anchor="middle" font-size="12" font-weight="bold" fill="#991B1B">QA</text>
  <line x1="765" y1="95" x2="784" y2="95" stroke="#94A3B8" stroke-width="1.5"/>
  <polygon points="790,95 784,91 784,99" fill="#94A3B8"/>
  <rect x="790" y="78" width="30" height="34" rx="6" fill="#475569"/>
  <text x="805.0" y="99.0" text-anchor="middle" font-size="9" font-weight="bold" fill="#fff">成片</text>
</svg>
