<svg viewBox="0 0 520 310" xmlns="http://www.w3.org/2000/svg">
  <!-- Root: prompt://customer-support/ -->
  <rect x="20" y="10" width="260" height="36" rx="6" fill="#F3F4F6" stroke="#9CA3AF" stroke-width="1.5"/>
  <text x="150" y="34" font-family="system-ui, -apple-system, 'PingFang SC', sans-serif" font-size="13" font-weight="bold" fill="#374151" text-anchor="middle">prompt://customer-support/</text>

  <!-- Vertical trunk line -->
  <line x1="40" y1="46" x2="40" y2="280" stroke="#CBD5E1" stroke-width="1.5"/>

  <!-- v1.0 (deprecated) -->
  <line x1="40" y1="70" x2="60" y2="70" stroke="#CBD5E1" stroke-width="1.5"/>
  <circle cx="40" cy="70" r="3" fill="#CBD5E1"/>
  <rect x="60" y="56" width="56" height="28" rx="4" fill="#E5E7EB" stroke="#9CA3AF" stroke-width="1"/>
  <text x="88" y="75" font-family="system-ui, -apple-system, 'PingFang SC', sans-serif" font-size="12" font-weight="bold" fill="#374151" text-anchor="middle">v1.0</text>
  <rect x="124" y="60" width="72" height="20" rx="10" fill="#E5E7EB"/>
  <text x="160" y="74" font-family="system-ui, -apple-system, 'PingFang SC', sans-serif" font-size="10" fill="#6B7280" text-anchor="middle">deprecated</text>
  <text x="210" y="74" font-family="system-ui, -apple-system, 'PingFang SC', sans-serif" font-size="11" fill="#9CA3AF">创建时间: 2026-01-15</text>

  <!-- v2.0 (deprecated) -->
  <line x1="40" y1="116" x2="60" y2="116" stroke="#CBD5E1" stroke-width="1.5"/>
  <circle cx="40" cy="116" r="3" fill="#CBD5E1"/>
  <rect x="60" y="102" width="56" height="28" rx="4" fill="#E5E7EB" stroke="#9CA3AF" stroke-width="1"/>
  <text x="88" y="121" font-family="system-ui, -apple-system, 'PingFang SC', sans-serif" font-size="12" font-weight="bold" fill="#374151" text-anchor="middle">v2.0</text>
  <rect x="124" y="106" width="72" height="20" rx="10" fill="#E5E7EB"/>
  <text x="160" y="120" font-family="system-ui, -apple-system, 'PingFang SC', sans-serif" font-size="10" fill="#6B7280" text-anchor="middle">deprecated</text>
  <text x="210" y="120" font-family="system-ui, -apple-system, 'PingFang SC', sans-serif" font-size="11" fill="#9CA3AF">创建时间: 2026-02-01</text>

  <!-- v2.1 (stable) ← 当前生产版本 -->
  <line x1="40" y1="162" x2="60" y2="162" stroke="#CBD5E1" stroke-width="1.5"/>
  <circle cx="40" cy="162" r="3" fill="#CBD5E1"/>
  <rect x="60" y="148" width="56" height="28" rx="4" fill="#DCFCE7" stroke="#16A34A" stroke-width="1.5"/>
  <text x="88" y="167" font-family="system-ui, -apple-system, 'PingFang SC', sans-serif" font-size="12" font-weight="bold" fill="#15803D" text-anchor="middle">v2.1</text>
  <rect x="124" y="152" width="52" height="20" rx="10" fill="#86EFAC"/>
  <text x="150" y="166" font-family="system-ui, -apple-system, 'PingFang SC', sans-serif" font-size="10" font-weight="bold" fill="#166534" text-anchor="middle">stable</text>
  <text x="190" y="166" font-family="system-ui, -apple-system, 'PingFang SC', sans-serif" font-size="11" fill="#9CA3AF">创建时间: 2026-02-20</text>
  <text x="370" y="166" font-family="system-ui, -apple-system, 'PingFang SC', sans-serif" font-size="11" font-weight="bold" fill="#15803D">← 当前生产版本</text>

  <!-- v2.2 (canary) ← 灰度中 -->
  <line x1="40" y1="208" x2="60" y2="208" stroke="#CBD5E1" stroke-width="1.5"/>
  <circle cx="40" cy="208" r="3" fill="#CBD5E1"/>
  <rect x="60" y="194" width="56" height="28" rx="4" fill="#FEF3C7" stroke="#F59E0B" stroke-width="1.5"/>
  <text x="88" y="213" font-family="system-ui, -apple-system, 'PingFang SC', sans-serif" font-size="12" font-weight="bold" fill="#D97706" text-anchor="middle">v2.2</text>
  <rect x="124" y="198" width="56" height="20" rx="10" fill="#FCD34D"/>
  <text x="152" y="212" font-family="system-ui, -apple-system, 'PingFang SC', sans-serif" font-size="10" font-weight="bold" fill="#92400E" text-anchor="middle">canary</text>
  <text x="194" y="212" font-family="system-ui, -apple-system, 'PingFang SC', sans-serif" font-size="11" fill="#9CA3AF">创建时间: 2026-03-10</text>
  <text x="370" y="212" font-family="system-ui, -apple-system, 'PingFang SC', sans-serif" font-size="11" font-weight="bold" fill="#D97706">← 灰度中</text>

  <!-- v3.0 (draft) ← 开发中 -->
  <line x1="40" y1="254" x2="60" y2="254" stroke="#CBD5E1" stroke-width="1.5"/>
  <circle cx="40" cy="254" r="3" fill="#CBD5E1"/>
  <rect x="60" y="240" width="56" height="28" rx="4" fill="#DBEAFE" stroke="#3B82F6" stroke-width="1.5"/>
  <text x="88" y="259" font-family="system-ui, -apple-system, 'PingFang SC', sans-serif" font-size="12" font-weight="bold" fill="#1E40AF" text-anchor="middle">v3.0</text>
  <rect x="124" y="244" width="46" height="20" rx="10" fill="#BFDBFE"/>
  <text x="147" y="258" font-family="system-ui, -apple-system, 'PingFang SC', sans-serif" font-size="10" font-weight="bold" fill="#1E40AF" text-anchor="middle">draft</text>
  <text x="184" y="258" font-family="system-ui, -apple-system, 'PingFang SC', sans-serif" font-size="11" fill="#9CA3AF">创建时间: 2026-03-25</text>
  <text x="370" y="258" font-family="system-ui, -apple-system, 'PingFang SC', sans-serif" font-size="11" font-weight="bold" fill="#1E40AF">← 开发中</text>
</svg>
