<svg xmlns="http://www.w3.org/2000/svg" width="620" height="825" viewBox="0 0 620 825" font-family="system-ui, -apple-system, 'PingFang SC', sans-serif">
<rect x="0" y="0" width="620" height="825" rx="8" fill="#f8fafc"/>
<text x="310" y="38" text-anchor="middle" font-size="25" font-weight="700" fill="#172033">四种结构共同解释一次规则执行</text>
<path d="M270 165V197" fill="none" stroke="#475569" stroke-width="1.5"/>
<polygon points="270,205 265,196 275,196" fill="#475569"/>
<path d="M270 310V342" fill="none" stroke="#475569" stroke-width="1.5"/>
<polygon points="270,350 265,341 275,341" fill="#475569"/>
<path d="M270 455V487" fill="none" stroke="#475569" stroke-width="1.5"/>
<polygon points="270,495 265,486 275,486" fill="#475569"/>
<path d="M270 600V632" fill="none" stroke="#475569" stroke-width="1.5"/>
<polygon points="270,640 265,631 275,631" fill="#475569"/>
<rect x="40" y="70" width="460" height="95" rx="8" fill="#eff6ff" stroke="#5276bf" stroke-width="1.5"/>
<text x="270.0" y="110.5" text-anchor="middle" font-size="22" fill="#172033">UI 配置</text>
<text x="270.0" y="140.5" text-anchor="middle" font-size="22" fill="#172033">条件、动作与网关</text>
<rect x="40" y="205" width="460" height="105" rx="8" fill="#eff6ff" stroke="#5276bf" stroke-width="1.5"/>
<text x="270.0" y="250.5" text-anchor="middle" font-size="22" fill="#172033">RuleNode AST</text>
<text x="270.0" y="280.5" text-anchor="middle" font-size="22" fill="#172033">网关可展开为多个执行节点</text>
<rect x="40" y="350" width="460" height="105" rx="8" fill="#f0fdf4" stroke="#548878" stroke-width="1.5"/>
<text x="270.0" y="395.5" text-anchor="middle" font-size="22" fill="#172033">EvalNode 轨迹</text>
<text x="270.0" y="425.5" text-anchor="middle" font-size="22" fill="#172033">记录实际访问的节点</text>
<rect x="40" y="495" width="460" height="105" rx="8" fill="#f5f3ff" stroke="#8060ba" stroke-width="1.5"/>
<text x="270.0" y="540.5" text-anchor="middle" font-size="22" fill="#172033">RuleResult 结果</text>
<text x="270.0" y="570.5" text-anchor="middle" font-size="22" fill="#172033">关联求值缓存与描述文案</text>
<rect x="40" y="640" width="460" height="95" rx="8" fill="#f5f3ff" stroke="#8060ba" stroke-width="1.5"/>
<text x="270.0" y="680.5" text-anchor="middle" font-size="22" fill="#172033">归因界面</text>
<text x="270.0" y="710.5" text-anchor="middle" font-size="22" fill="#172033">结合配置区分未执行与未通过</text>
<path d="M500 115H560V687H509" fill="none" stroke="#475569" stroke-width="1.5"/>
<polygon points="500,687 510,682 510,692" fill="#475569"/>
<text x="310" y="785" text-anchor="middle" font-size="20" fill="#475569">右侧连线：保留配置，用于与执行结果对应</text>
</svg>
